<svg width="4171" height="1618" xmlns="http://www.w3.org/2000/svg" xmlns:xlink="http://www.w3.org/1999/xlink" xml:space="preserve" overflow="hidden"><g transform="translate(-128 -499)"><g><path d="M1503.5 1201.5C1503.5 816.558 1815.56 504.5 2200.5 504.5 2585.44 504.5 2897.5 816.558 2897.5 1201.5 2897.5 1586.44 2585.44 1898.5 2200.5 1898.5 1815.56 1898.5 1503.5 1586.44 1503.5 1201.5Z" stroke="#FFFFFF" stroke-width="6.875" stroke-linecap="butt" stroke-linejoin="miter" stroke-miterlimit="8" stroke-opacity="0.74902" fill="#38B6FF" fill-rule="evenodd" fill-opacity="0.25098"/><path d="M1698.62 756.563 1723.23 730.243 1730.92 737.438 1722.7 746.231 1751.51 773.159 1759.73 764.366 1767.43 771.562 1742.83 797.882 1735.13 790.686 1743.35 781.893 1714.54 754.965 1706.32 763.758Z" fill="#FFFFFF" fill-rule="evenodd" fill-opacity="1"/><text fill="#000000" fill-opacity="0" font-family="Arial,Arial_MSFontService,sans-serif" font-size="67.6393" direction="ltr" writing-mode="lr-tb" x="1698.62" y="789.427">I</text><path d="M1761.57 713.285C1764.74 710.383 1768.09 709.244 1771.63 709.868 1775.17 710.492 1778.84 712.886 1782.66 717.05L1802.56 738.778 1793.86 746.743 1775.19 726.361C1772.97 723.93 1771.03 722.506 1769.38 722.09 1767.74 721.673 1766.14 722.177 1764.59 723.6 1763.01 725.042 1762.42 726.885 1762.81 729.13 1763.2 731.375 1764.54 733.753 1766.84 736.263L1784.39 755.42 1775.69 763.386 1745.03 729.913 1753.73 721.947 1758.33 726.968C1757.25 724.55 1756.99 722.148 1757.55 719.763 1758.12 717.378 1759.46 715.219 1761.57 713.285Z" fill="#FFFFFF" fill-rule="evenodd" fill-opacity="1"/><text fill="#000000" fill-opacity="0" font-family="Arial,Arial_MSFontService,sans-serif" font-size="53.6833" direction="ltr" writing-mode="lr-tb" x="1745.03" y="756.675">n</text><path d="M1803.66 690.733C1801.64 692.314 1800.81 694.541 1801.17 697.414 1801.53 700.288 1803.05 703.449 1805.75 706.898 1808.44 710.347 1811.14 712.594 1813.84 713.638 1816.54 714.682 1818.91 714.414 1820.93 712.833 1822.95 711.253 1823.77 709.035 1823.39 706.178 1823.01 703.321 1821.47 700.168 1818.78 696.718 1816.08 693.269 1813.4 691.014 1810.72 689.954 1808.04 688.893 1805.69 689.153 1803.66 690.733ZM1800.61 680.773C1804.7 677.58 1809.15 676.741 1813.97 678.256 1818.79 679.772 1823.53 683.51 1828.19 689.472 1832.91 695.518 1835.39 701.054 1835.63 706.078 1835.87 711.103 1833.87 715.27 1829.64 718.58 1827.72 720.077 1825.61 720.925 1823.32 721.124 1821.02 721.324 1818.52 720.872 1815.8 719.769L1830.38 738.42 1821.05 745.705 1782.48 696.331 1791.8 689.046 1795.99 694.411C1795.36 691.581 1795.43 689.02 1796.22 686.729 1797 684.439 1798.46 682.453 1800.61 680.773Z" fill="#FFFFFF" fill-rule="evenodd" fill-opacity="1"/><text fill="#000000" fill-opacity="0" font-family="Arial,Arial_MSFontService,sans-serif" font-size="68.1806" direction="ltr" writing-mode="lr-tb" x="1782.48" y="737.182">p</text><path d="M1823.59 664.931 1833.5 658.381 1848.79 681.502C1850.59 684.229 1852.26 685.925 1853.8 686.59 1855.35 687.255 1857.01 686.999 1858.79 685.821 1860.57 684.644 1861.44 682.935 1861.4 680.694 1861.36 678.453 1860.4 675.913 1858.52 673.074L1844.14 651.338 1854.05 644.788 1879.09 682.648 1869.18 689.198 1865.47 683.587C1866.16 686.144 1866.04 688.553 1865.13 690.813 1864.21 693.073 1862.56 694.985 1860.2 696.55 1856.59 698.935 1853.08 699.54 1849.66 698.366 1846.25 697.192 1842.99 694.261 1839.89 689.574Z" fill="#FFFFFF" fill-rule="evenodd" fill-opacity="1"/><text fill="#000000" fill-opacity="0" font-family="Arial,Arial_MSFontService,sans-serif" font-size="54.1588" direction="ltr" writing-mode="lr-tb" x="1823.59" y="692.177">u</text><path d="M1868.83 621.196 1879.22 615.447 1885.46 626.723 1899.04 619.207 1903.46 627.185 1889.87 634.701 1900.27 653.495C1901.26 655.268 1902.39 656.3 1903.68 656.591 1904.97 656.881 1906.62 656.471 1908.62 655.359L1916.6 650.943 1921.02 658.922 1912.3 663.749C1906.34 667.046 1901.78 668.325 1898.62 667.586 1895.47 666.848 1892.46 663.902 1889.61 658.748L1879.48 640.451 1869.34 646.063 1864.93 638.085 1875.07 632.473Z" fill="#FFFFFF" fill-rule="evenodd" fill-opacity="1"/><text fill="#000000" fill-opacity="0" font-family="Arial,Arial_MSFontService,sans-serif" font-size="52.3424" direction="ltr" writing-mode="lr-tb" x="1864.93" y="661.246">t</text><path d="M1894.5 1620.5C1894.5 1348.78 2114.78 1128.5 2386.5 1128.5 2658.22 1128.5 2878.5 1348.78 2878.5 1620.5 2878.5 1892.22 2658.22 2112.5 2386.5 2112.5 2114.78 2112.5 1894.5 1892.22 1894.5 1620.5Z" stroke="#FFFFFF" stroke-width="6.875" stroke-linecap="butt" stroke-linejoin="miter" stroke-miterlimit="8" stroke-opacity="0.74902" fill="#FF5757" fill-rule="evenodd" fill-opacity="0.25098"/><path d="M2468.97 1957.22C2466 1957.94 2464.22 1960.06 2463.63 1963.55 2463.04 1967.05 2463.61 1972.33 2465.34 1979.39 2467.06 1986.42 2468.99 1991.35 2471.12 1994.18 2473.26 1997.01 2475.81 1998.06 2478.78 1997.33 2481.77 1996.6 2483.56 1994.49 2484.15 1990.99 2484.75 1987.5 2484.18 1982.23 2482.46 1975.2 2480.73 1968.14 2478.8 1963.19 2476.66 1960.36 2474.53 1957.54 2471.96 1956.49 2468.97 1957.22ZM2466.42 1946.79C2473.24 1945.12 2479.02 1946.43 2483.76 1950.72 2488.49 1955.02 2492.09 1962.19 2494.55 1972.24 2497 1982.27 2497.11 1990.28 2494.9 1996.27 2492.68 2002.27 2488.15 2006.1 2481.33 2007.77 2474.53 2009.43 2468.77 2008.11 2464.03 2003.82 2459.3 1999.53 2455.7 1992.37 2453.25 1982.34 2450.79 1972.29 2450.67 1964.27 2452.89 1958.27 2455.11 1952.28 2459.62 1948.45 2466.42 1946.79Z" fill="#FFFFFF" fill-rule="evenodd" fill-opacity="1"/><text fill="#000000" fill-opacity="0" font-family="Arial,Arial_MSFontService,sans-serif" font-size="62.3762" direction="ltr" writing-mode="lr-tb" x="2451.31" y="2000.67">O</text><path d="M2496.72 1955.46 2507.78 1951.16 2517.83 1977C2519.01 1980.04 2520.29 1982.05 2521.65 1983.03 2523.02 1984.01 2524.7 1984.11 2526.69 1983.34 2528.68 1982.56 2529.89 1981.08 2530.32 1978.88 2530.76 1976.68 2530.36 1973.99 2529.13 1970.82L2519.68 1946.53 2530.75 1942.23 2547.2 1984.54 2536.13 1988.84 2533.69 1982.57C2533.82 1985.21 2533.2 1987.54 2531.82 1989.56 2530.45 1991.57 2528.43 1993.09 2525.79 1994.12 2521.76 1995.69 2518.2 1995.53 2515.11 1993.66 2512.02 1991.79 2509.46 1988.24 2507.42 1983Z" fill="#FFFFFF" fill-rule="evenodd" fill-opacity="1"/><text fill="#000000" fill-opacity="0" font-family="Arial,Arial_MSFontService,sans-serif" font-size="52.9598" direction="ltr" writing-mode="lr-tb" x="2496.72" y="1988.57">u</text><path d="M2541.47 1922.38 2551.89 1916.68 2558.08 1927.98 2571.69 1920.52 2576.07 1928.52 2562.46 1935.98 2572.78 1954.82C2573.75 1956.59 2574.88 1957.63 2576.17 1957.93 2577.45 1958.22 2579.1 1957.82 2581.12 1956.72L2589.12 1952.34 2593.5 1960.33 2584.75 1965.12C2578.78 1968.39 2574.22 1969.65 2571.06 1968.9 2567.91 1968.15 2564.92 1965.19 2562.09 1960.02L2552.04 1941.68 2541.88 1947.25 2537.5 1939.25 2547.66 1933.68Z" fill="#FFFFFF" fill-rule="evenodd" fill-opacity="1"/><text fill="#000000" fill-opacity="0" font-family="Arial,Arial_MSFontService,sans-serif" font-size="52.4348" direction="ltr" writing-mode="lr-tb" x="2537.5" y="1962.56">t</text><path d="M2601.3 1910.32C2599.23 1911.84 2598.33 1914.04 2598.6 1916.92 2598.88 1919.8 2600.31 1923.01 2602.9 1926.54 2605.49 1930.07 2608.12 1932.39 2610.79 1933.52 2613.46 1934.64 2615.83 1934.44 2617.9 1932.92 2619.96 1931.41 2620.85 1929.21 2620.56 1926.35 2620.26 1923.48 2618.82 1920.28 2616.23 1916.75 2613.64 1913.22 2611.02 1910.89 2608.37 1909.75 2605.73 1908.61 2603.37 1908.8 2601.3 1910.32ZM2598.55 1900.27C2602.73 1897.2 2607.21 1896.5 2611.98 1898.15 2616.75 1899.81 2621.37 1903.69 2625.85 1909.79 2630.39 1915.98 2632.7 1921.58 2632.79 1926.61 2632.88 1931.64 2630.76 1935.75 2626.43 1938.93 2624.47 1940.37 2622.34 1941.15 2620.03 1941.28 2617.73 1941.41 2615.24 1940.89 2612.56 1939.7L2626.57 1958.78 2617.03 1965.78 2579.95 1915.28 2589.49 1908.28 2593.52 1913.76C2592.97 1910.92 2593.12 1908.36 2593.97 1906.09 2594.82 1903.83 2596.35 1901.89 2598.55 1900.27Z" fill="#FFFFFF" fill-rule="evenodd" fill-opacity="1"/><text fill="#000000" fill-opacity="0" font-family="Arial,Arial_MSFontService,sans-serif" font-size="68.5035" direction="ltr" writing-mode="lr-tb" x="2579.95" y="1957.22">p</text><path d="M2616.1 1888.12 2624.71 1879.94 2643.81 1900.03C2646.06 1902.4 2648 1903.77 2649.63 1904.16 2651.27 1904.55 2652.86 1904 2654.41 1902.53 2655.95 1901.06 2656.51 1899.23 2656.08 1897.03 2655.65 1894.83 2654.26 1892.49 2651.91 1890.03L2633.96 1871.14 2642.56 1862.96 2673.84 1895.86 2665.23 1904.04 2660.6 1899.16C2661.72 1901.56 2662.03 1903.95 2661.52 1906.34 2661.01 1908.72 2659.73 1910.89 2657.67 1912.85 2654.54 1915.83 2651.19 1917.04 2647.62 1916.48 2644.05 1915.92 2640.33 1913.6 2636.46 1909.53Z" fill="#FFFFFF" fill-rule="evenodd" fill-opacity="1"/><text fill="#000000" fill-opacity="0" font-family="Arial,Arial_MSFontService,sans-serif" font-size="53.651" direction="ltr" writing-mode="lr-tb" x="2616.1" y="1909.9">u</text><path d="M2644.98 1840.51 2652.45 1831.28 2662.46 1839.4 2672.23 1827.33 2679.32 1833.07 2669.55 1845.13 2686.24 1858.65C2687.82 1859.93 2689.26 1860.46 2690.56 1860.25 2691.86 1860.03 2693.24 1859.03 2694.68 1857.25L2700.42 1850.16 2707.51 1855.9 2701.23 1863.65C2696.95 1868.94 2693.2 1871.84 2690 1872.34 2686.79 1872.84 2682.9 1871.23 2678.33 1867.52L2662.08 1854.36 2654.78 1863.37 2647.7 1857.63 2654.99 1848.62Z" fill="#FFFFFF" fill-rule="evenodd" fill-opacity="1"/><text fill="#000000" fill-opacity="0" font-family="Arial,Arial_MSFontService,sans-serif" font-size="45.0908" direction="ltr" writing-mode="lr-tb" x="2644.98" y="1866.79">t</text><path d="M1619.5 1201.5C1619.5 878.966 1880.97 617.5 2203.5 617.5 2526.03 617.5 2787.5 878.966 2787.5 1201.5 2787.5 1524.03 2526.03 1785.5 2203.5 1785.5 1880.97 1785.5 1619.5 1524.03 1619.5 1201.5Z" stroke="#FFFFFF" stroke-width="6.875" stroke-linecap="butt" stroke-linejoin="miter" stroke-miterlimit="8" stroke-opacity="0.74902" fill="#00629C" fill-rule="evenodd" fill-opacity="0.25098"/><path d="M1724.13 901.93 1745.45 870.853 1754.14 876.815 1739.58 898.034 1750.34 905.418 1763.59 886.104 1772.28 892.066 1759.03 911.38 1780.78 926.308 1774.02 936.166Z" fill="#FFFFFF" fill-rule="evenodd" fill-opacity="1"/><text fill="#000000" fill-opacity="0" font-family="Arial,Arial_MSFontService,sans-serif" font-size="65.3131" direction="ltr" writing-mode="lr-tb" x="1724.13" y="928.002">F</text><path d="M1784.96 859.456C1783.14 861.633 1782.67 864.145 1783.55 866.991 1784.42 869.838 1786.57 872.691 1789.99 875.55 1793.41 878.409 1796.6 880.018 1799.56 880.377 1802.52 880.736 1804.91 879.827 1806.73 877.65 1808.56 875.453 1809.04 872.931 1808.16 870.084 1807.29 867.238 1805.14 864.385 1801.72 861.526 1798.3 858.667 1795.11 857.058 1792.15 856.699 1789.19 856.34 1786.8 857.259 1784.96 859.456ZM1777.56 853.271C1781.68 848.337 1786.6 845.787 1792.32 845.621 1798.04 845.454 1803.71 847.719 1809.33 852.415 1814.95 857.111 1818.18 862.288 1819.04 867.947 1819.89 873.606 1818.25 878.902 1814.13 883.836 1810.02 888.749 1805.11 891.289 1799.39 891.455 1793.67 891.621 1788 889.357 1782.38 884.661 1776.76 879.965 1773.53 874.788 1772.68 869.129 1771.82 863.47 1773.45 858.184 1777.56 853.271Z" fill="#FFFFFF" fill-rule="evenodd" fill-opacity="1"/><text fill="#000000" fill-opacity="0" font-family="Arial,Arial_MSFontService,sans-serif" font-size="45.8516" direction="ltr" writing-mode="lr-tb" x="1772.46" y="885.732">o</text><path d="M1822.23 805.623C1823.39 804.485 1824.65 803.509 1826.04 802.696 1827.42 801.884 1828.87 801.253 1830.4 800.805L1838.35 808.852C1836.59 808.917 1834.88 809.35 1833.22 810.151 1831.56 810.952 1830 812.084 1828.51 813.545 1826.73 815.31 1825.47 817.165 1824.75 819.109 1824.03 821.053 1823.9 822.982 1824.34 824.895 1824.6 826.081 1825.15 827.284 1826 828.502 1826.84 829.721 1828.3 831.388 1830.39 833.503L1845.08 848.386 1836.63 856.728 1804.74 824.424 1813.2 816.082 1818.15 821.101C1817.15 818.439 1817.01 815.758 1817.73 813.059 1818.44 810.361 1819.94 807.882 1822.23 805.623Z" fill="#FFFFFF" fill-rule="evenodd" fill-opacity="1"/><text fill="#000000" fill-opacity="0" font-family="Arial,Arial_MSFontService,sans-serif" font-size="55.9232" direction="ltr" writing-mode="lr-tb" x="1804.74" y="849.737">r</text><path d="M1834.03 795.714 1841.7 789.474 1867.83 813.047 1857.18 792.19 1864.63 786.128 1882.82 800.848 1865.12 770.421 1872.79 764.181 1895.06 804.584 1886.32 811.694 1867.16 796.874 1877.8 818.624 1869.06 825.734Z" fill="#FFFFFF" fill-rule="evenodd" fill-opacity="1"/><text fill="#000000" fill-opacity="0" font-family="Arial,Arial_MSFontService,sans-serif" font-size="61.5534" direction="ltr" writing-mode="lr-tb" x="1834.03" y="818.04">w</text><path d="M1912.04 766.832C1908.35 769.287 1906.09 771.472 1905.25 773.39 1904.42 775.307 1904.77 777.414 1906.29 779.708 1907.43 781.418 1908.84 782.442 1910.53 782.781 1912.21 783.12 1913.92 782.713 1915.65 781.561 1918.26 779.825 1919.63 777.494 1919.76 774.568 1919.89 771.642 1918.78 768.413 1916.43 764.881L1915.99 764.206ZM1895.2 747.808C1901.34 743.723 1906.48 742.102 1910.63 742.945 1914.77 743.789 1918.99 747.427 1923.27 753.861L1937.61 775.423 1927.79 781.955 1924.99 777.737C1924.9 780.195 1924.22 782.495 1922.96 784.637 1921.69 786.779 1919.93 788.598 1917.68 790.094 1913.38 792.952 1909.28 794.042 1905.37 793.364 1901.47 792.686 1898.16 790.311 1895.45 786.239 1892.52 781.83 1891.78 777.623 1893.24 773.62 1894.69 769.616 1898.42 765.624 1904.4 761.643L1911.25 757.086 1910.15 755.433C1909.09 753.836 1907.7 753.012 1906 752.962 1904.29 752.911 1902.32 753.634 1900.07 755.131 1897.7 756.702 1895.61 758.523 1893.79 760.593 1891.98 762.663 1890.3 765.151 1888.76 768.057L1883.15 759.621C1884.73 757.27 1886.5 755.132 1888.47 753.208 1890.43 751.284 1892.68 749.484 1895.2 747.808Z" fill="#FFFFFF" fill-rule="evenodd" fill-opacity="1"/><text fill="#000000" fill-opacity="0" font-family="Arial,Arial_MSFontService,sans-serif" font-size="50.8302" direction="ltr" writing-mode="lr-tb" x="1883.15" y="787.205">a</text><path d="M1951.64 714.733C1953.07 713.968 1954.56 713.392 1956.11 713.004 1957.67 712.617 1959.24 712.425 1960.84 712.429L1966.17 722.398C1964.47 721.962 1962.71 721.893 1960.89 722.191 1959.07 722.489 1957.25 723.129 1955.41 724.111 1953.2 725.297 1951.47 726.72 1950.23 728.38 1948.99 730.04 1948.31 731.851 1948.2 733.812 1948.11 735.024 1948.3 736.333 1948.76 737.74 1949.22 739.148 1950.15 741.162 1951.55 743.782L1961.42 762.22 1950.95 767.823 1929.53 727.803 1940 722.2 1943.33 728.417C1943.13 725.582 1943.76 722.972 1945.21 720.587 1946.66 718.202 1948.8 716.25 1951.64 714.733Z" fill="#FFFFFF" fill-rule="evenodd" fill-opacity="1"/><text fill="#000000" fill-opacity="0" font-family="Arial,Arial_MSFontService,sans-serif" font-size="55.3939" direction="ltr" writing-mode="lr-tb" x="1929.53" y="760.898">r</text><path d="M1991.07 707.52C1988.7 708.511 1987.33 710.434 1986.94 713.29 1986.55 716.146 1987.2 719.593 1988.89 723.631 1990.58 727.669 1992.58 730.553 1994.89 732.283 1997.19 734.013 1999.53 734.383 2001.89 733.393 2004.26 732.402 2005.65 730.474 2006.06 727.607 2006.48 724.74 2005.84 721.288 2004.15 717.25 2002.46 713.212 2000.45 710.334 1998.12 708.614 1995.79 706.894 1993.44 706.53 1991.07 707.52ZM1988.52 679.9 1999.44 675.333 2023.78 733.509 2012.86 738.075 2010.26 731.869C2010.1 734.777 2009.35 737.23 2008 739.228 2006.66 741.226 2004.73 742.752 2002.21 743.805 1997.42 745.807 1992.91 745.441 1988.66 742.707 1984.41 739.974 1980.83 735.118 1977.91 728.139 1974.95 721.06 1974.01 715.066 1975.11 710.156 1976.2 705.247 1979.23 701.755 1984.19 699.68 1986.43 698.742 1988.69 698.479 1990.96 698.893 1993.22 699.306 1995.51 700.39 1997.83 702.145Z" fill="#FFFFFF" fill-rule="evenodd" fill-opacity="1"/><text fill="#000000" fill-opacity="0" font-family="Arial,Arial_MSFontService,sans-serif" font-size="69.7413" direction="ltr" writing-mode="lr-tb" x="1974.66" y="736.356">d</text><path d="M1725.5 1201.5C1725.5 937.508 1939.51 723.5 2203.5 723.5 2467.49 723.5 2681.5 937.508 2681.5 1201.5 2681.5 1465.49 2467.49 1679.5 2203.5 1679.5 1939.51 1679.5 1725.5 1465.49 1725.5 1201.5Z" stroke="#FFFFFF" stroke-width="6.875" stroke-linecap="butt" stroke-linejoin="miter" stroke-miterlimit="8" stroke-opacity="0.74902" fill="#3A3A3A" fill-rule="evenodd" fill-opacity="0.25098"/><path d="M1816.02 1048.65 1832.61 1055.41 1835.61 1048.06C1837.05 1044.53 1837.46 1041.81 1836.83 1039.91 1836.21 1038.01 1834.4 1036.45 1831.43 1035.24 1828.4 1034 1825.92 1033.85 1823.99 1034.79 1822.07 1035.72 1820.41 1037.89 1819.02 1041.3ZM1794.18 1039.75 1807.2 1045.06 1810.2 1037.7C1811.35 1034.9 1811.66 1032.7 1811.14 1031.1 1810.63 1029.51 1809.22 1028.24 1806.91 1027.3 1804.61 1026.36 1802.7 1026.29 1801.16 1027.08 1799.63 1027.87 1798.3 1029.64 1797.18 1032.39ZM1781 1046.85 1788.36 1028.8C1790.9 1022.57 1793.99 1018.36 1797.64 1016.19 1801.28 1014.01 1805.45 1013.88 1810.16 1015.8 1813.76 1017.27 1816.2 1019.34 1817.47 1022.02 1818.74 1024.7 1818.81 1027.89 1817.68 1031.6 1819.85 1027.5 1822.6 1024.86 1825.93 1023.7 1829.27 1022.53 1833.14 1022.85 1837.54 1024.64 1842.94 1026.84 1846.2 1030.07 1847.3 1034.31 1848.4 1038.55 1847.46 1044.34 1844.47 1051.67L1837.11 1069.72Z" fill="#FFFFFF" fill-rule="evenodd" fill-opacity="1"/><text fill="#000000" fill-opacity="0" font-family="Arial,Arial_MSFontService,sans-serif" font-size="55.2654" direction="ltr" writing-mode="lr-tb" x="1781" y="1062.81">B</text><path d="M1817.96 999.895 1829.39 979.358 1861.08 997.006 1868.26 984.117 1876.23 988.554 1856.08 1024.74 1848.11 1020.3 1855.31 1007.38 1831.58 994.169 1825.93 1004.33ZM1804.32 978.987 1810.1 968.612 1822.21 975.356 1816.43 985.73Z" fill="#FFFFFF" fill-rule="evenodd" fill-opacity="1"/><text fill="#000000" fill-opacity="0" font-family="Arial,Arial_MSFontService,sans-serif" font-size="56.1277" direction="ltr" writing-mode="lr-tb" x="1804.32" y="1017.72">i</text><path d="M1860.99 946.97C1859.48 949.043 1859.3 951.402 1860.45 954.045 1861.6 956.689 1863.94 959.3 1867.48 961.88 1871.01 964.459 1874.21 965.892 1877.08 966.178 1879.95 966.464 1882.14 965.57 1883.65 963.497 1885.16 961.423 1885.35 959.054 1884.22 956.388 1883.09 953.723 1880.76 951.1 1877.22 948.521 1873.68 945.942 1870.47 944.52 1867.59 944.255 1864.71 943.991 1862.51 944.896 1860.99 946.97ZM1844.51 924.662 1851.48 915.101 1902.43 952.263 1895.46 961.824 1890.02 957.859C1891.39 960.43 1892.02 962.918 1891.9 965.325 1891.78 967.731 1890.92 970.036 1889.31 972.241 1886.26 976.432 1882.2 978.458 1877.15 978.32 1872.1 978.182 1866.52 975.884 1860.41 971.426 1854.21 966.904 1850.31 962.259 1848.7 957.493 1847.1 952.726 1847.88 948.171 1851.05 943.827 1852.48 941.862 1854.27 940.47 1856.43 939.65 1858.58 938.829 1861.1 938.57 1863.99 938.872Z" fill="#FFFFFF" fill-rule="evenodd" fill-opacity="1"/><text fill="#000000" fill-opacity="0" font-family="Arial,Arial_MSFontService,sans-serif" font-size="63.226" direction="ltr" writing-mode="lr-tb" x="1844.51" y="970.424">d</text><path d="M1877.81 911.241 1893.87 894.08 1920.35 918.866 1930.43 908.096 1937.09 914.327 1908.79 944.566 1902.13 938.335 1912.24 927.535 1892.41 908.98 1884.47 917.472ZM1869.63 887.656 1877.74 878.986 1887.86 888.458 1879.75 897.127Z" fill="#FFFFFF" fill-rule="evenodd" fill-opacity="1"/><text fill="#000000" fill-opacity="0" font-family="Arial,Arial_MSFontService,sans-serif" font-size="65.5803" direction="ltr" writing-mode="lr-tb" x="1869.63" y="936.369">i</text><path d="M1936.51 853.918C1937.76 852.877 1939.1 852.009 1940.54 851.312 1941.98 850.615 1943.49 850.106 1945.05 849.785L1952.31 858.456C1950.55 858.377 1948.81 858.668 1947.09 859.331 1945.38 859.993 1943.72 860.992 1942.12 862.328 1940.2 863.94 1938.8 865.686 1937.92 867.564 1937.04 869.443 1936.75 871.354 1937.04 873.297 1937.2 874.501 1937.65 875.745 1938.39 877.028 1939.13 878.312 1940.45 880.093 1942.36 882.372L1955.78 898.409 1946.67 906.03 1917.54 871.221 1926.65 863.6 1931.17 869.008C1930.4 866.273 1930.48 863.591 1931.41 860.959 1932.35 858.328 1934.05 855.981 1936.51 853.918Z" fill="#FFFFFF" fill-rule="evenodd" fill-opacity="1"/><text fill="#000000" fill-opacity="0" font-family="Arial,Arial_MSFontService,sans-serif" font-size="56.2454" direction="ltr" writing-mode="lr-tb" x="1917.54" y="898.999">r</text><path d="M1975.41 837.567C1973.12 839.053 1971.75 840.934 1971.3 843.211 1970.84 845.487 1971.32 847.986 1972.73 850.709L1988.38 840.501C1986.63 837.902 1984.66 836.351 1982.49 835.849 1980.31 835.346 1977.95 835.919 1975.41 837.567ZM1970.4 829.851C1976.04 826.187 1981.51 825.016 1986.79 826.335 1992.08 827.655 1996.7 831.351 2000.64 837.424L2003.26 841.469 1977.46 858.219C1979.43 861.196 1981.76 862.854 1984.46 863.194 1987.16 863.534 1990.25 862.579 1993.72 860.328 1996 858.842 1998.05 857.049 1999.84 854.951 2001.63 852.852 2003.28 850.301 2004.78 847.299L2010.71 856.443C2009.02 858.895 2007.13 861.139 2005.04 863.175 2002.94 865.21 2000.56 867.096 1997.88 868.832 1991.52 872.966 1985.54 874.42 1979.96 873.195 1974.38 871.969 1969.51 868.15 1965.35 861.737 1961.32 855.528 1959.75 849.569 1960.65 843.862 1961.56 838.155 1964.8 833.485 1970.4 829.851Z" fill="#FFFFFF" fill-rule="evenodd" fill-opacity="1"/><text fill="#000000" fill-opacity="0" font-family="Arial,Arial_MSFontService,sans-serif" font-size="47.8043" direction="ltr" writing-mode="lr-tb" x="1960.41" y="867.64">e</text><path d="M2020.56 801.662C2022.74 800.593 2024.97 799.817 2027.25 799.335 2029.52 798.853 2031.93 798.652 2034.47 798.734L2039.24 808.489C2037.04 807.915 2034.83 807.724 2032.62 807.917 2030.42 808.11 2028.32 808.693 2026.33 809.667 2022.86 811.366 2020.73 813.777 2019.94 816.9 2019.15 820.023 2019.76 823.623 2021.75 827.7 2023.75 831.776 2026.22 834.449 2029.15 835.719 2032.09 836.988 2035.29 836.773 2038.77 835.075 2040.83 834.065 2042.59 832.775 2044.04 831.204 2045.5 829.633 2046.69 827.752 2047.6 825.561L2052.39 835.353C2051.11 837.275 2049.56 839.002 2047.75 840.534 2045.95 842.065 2043.85 843.413 2041.48 844.577 2035.19 847.654 2029.35 848.166 2023.95 846.115 2018.56 844.064 2014.22 839.689 2010.94 832.992 2007.65 826.27 2006.86 820.137 2008.57 814.593 2010.28 809.049 2014.27 804.739 2020.56 801.662Z" fill="#FFFFFF" fill-rule="evenodd" fill-opacity="1"/><text fill="#000000" fill-opacity="0" font-family="Arial,Arial_MSFontService,sans-serif" font-size="48.6295" direction="ltr" writing-mode="lr-tb" x="2007.69" y="841.267">c</text><path d="M2054.04 774.742 2065.26 770.843 2069.49 783.016 2084.15 777.919 2087.15 786.532 2072.48 791.629 2079.54 811.917C2080.2 813.831 2081.15 815.041 2082.36 815.546 2083.58 816.052 2085.28 815.928 2087.45 815.173L2096.06 812.179 2099.06 820.792 2089.64 824.066C2083.21 826.302 2078.5 826.787 2075.51 825.522 2072.53 824.258 2070.07 820.844 2068.13 815.28L2061.27 795.528 2050.32 799.334 2047.33 790.721 2058.27 786.915Z" fill="#FFFFFF" fill-rule="evenodd" fill-opacity="1"/><text fill="#000000" fill-opacity="0" font-family="Arial,Arial_MSFontService,sans-serif" font-size="55.3654" direction="ltr" writing-mode="lr-tb" x="2047.33" y="819.287">t</text><path d="M2102.56 772.904 2125.53 767.923 2133.21 803.372 2147.63 800.246 2149.56 809.158 2109.08 817.934 2107.15 809.022 2121.61 805.888 2115.86 779.351 2104.49 781.816ZM2109.24 748.854 2120.85 746.337 2123.78 759.883 2112.18 762.399Z" fill="#FFFFFF" fill-rule="evenodd" fill-opacity="1"/><text fill="#000000" fill-opacity="0" font-family="Arial,Arial_MSFontService,sans-serif" font-size="71.5963" direction="ltr" writing-mode="lr-tb" x="2102.56" y="808.984">i</text><path d="M2171.92 769.884C2169.09 770.144 2166.99 771.593 2165.6 774.23 2164.22 776.868 2163.73 780.406 2164.14 784.845 2164.55 789.284 2165.67 792.674 2167.52 795.014 2169.36 797.354 2171.69 798.394 2174.52 798.134 2177.37 797.871 2179.49 796.421 2180.87 793.784 2182.26 791.147 2182.75 787.609 2182.34 783.169 2181.93 778.73 2180.8 775.341 2178.96 773 2177.12 770.66 2174.77 769.622 2171.92 769.884ZM2171.03 760.279C2177.44 759.69 2182.73 761.353 2186.9 765.27 2191.07 769.186 2193.49 774.79 2194.16 782.081 2194.84 789.372 2193.48 795.324 2190.09 799.936 2186.7 804.548 2181.81 807.149 2175.4 807.739 2169.03 808.326 2163.75 806.661 2159.58 802.745 2155.41 798.829 2152.99 793.225 2152.31 785.934 2151.64 778.643 2153 772.691 2156.39 768.079 2159.78 763.466 2164.66 760.866 2171.03 760.279Z" fill="#FFFFFF" fill-rule="evenodd" fill-opacity="1"/><text fill="#000000" fill-opacity="0" font-family="Arial,Arial_MSFontService,sans-serif" font-size="47.69" direction="ltr" writing-mode="lr-tb" x="2152.15" y="801.892">o</text><path d="M2230.13 758.797C2234.42 758.928 2237.62 760.451 2239.72 763.366 2241.82 766.282 2242.78 770.562 2242.61 776.206L2241.72 805.656 2229.93 805.298 2230.77 777.671C2230.87 774.376 2230.48 772.006 2229.59 770.56 2228.7 769.113 2227.2 768.358 2225.09 768.294 2222.96 768.23 2221.25 769.137 2219.96 771.017 2218.68 772.898 2217.98 775.539 2217.88 778.942L2217.09 804.908 2205.3 804.55 2206.68 759.18 2218.47 759.538 2218.26 766.343C2219.17 763.857 2220.66 761.956 2222.73 760.641 2224.8 759.325 2227.26 758.71 2230.13 758.797Z" fill="#FFFFFF" fill-rule="evenodd" fill-opacity="1"/><text fill="#000000" fill-opacity="0" font-family="Arial,Arial_MSFontService,sans-serif" font-size="46.8663" direction="ltr" writing-mode="lr-tb" x="2205.3" y="799.797">n</text><path d="M2277.69 788.929C2273.31 788.257 2270.17 788.348 2268.26 789.203 2266.35 790.058 2265.19 791.847 2264.77 794.571 2264.46 796.601 2264.81 798.309 2265.83 799.695 2266.85 801.081 2268.38 801.932 2270.44 802.248 2273.54 802.724 2276.12 801.925 2278.19 799.851 2280.26 797.777 2281.61 794.643 2282.26 790.45L2282.38 789.649ZM2278.07 763.524C2285.36 764.644 2290.25 766.913 2292.75 770.331 2295.24 773.748 2295.9 779.276 2294.73 786.913L2290.8 812.51 2279.14 810.72 2279.91 805.712C2278.19 807.471 2276.14 808.714 2273.76 809.442 2271.38 810.17 2268.86 810.328 2266.19 809.918 2261.09 809.135 2257.32 807.176 2254.89 804.042 2252.46 800.908 2251.62 796.924 2252.36 792.09 2253.16 786.856 2255.45 783.251 2259.23 781.275 2263 779.299 2268.44 778.857 2275.55 779.948L2283.68 781.197 2283.98 779.234C2284.27 777.338 2283.8 775.797 2282.58 774.611 2281.35 773.425 2279.4 772.627 2276.73 772.217 2273.93 771.786 2271.16 771.723 2268.42 772.026 2265.68 772.33 2262.76 773.037 2259.67 774.147L2261.21 764.132C2263.96 763.462 2266.71 763.078 2269.46 762.981 2272.21 762.884 2275.08 763.065 2278.07 763.524Z" fill="#FFFFFF" fill-rule="evenodd" fill-opacity="1"/><text fill="#000000" fill-opacity="0" font-family="Arial,Arial_MSFontService,sans-serif" font-size="49.5545" direction="ltr" writing-mode="lr-tb" x="2252.1" y="806.316">a</text><path d="M2314.57 753.175 2337.59 759.633 2325.67 802.127C2324.71 805.561 2324.56 808.143 2325.22 809.873 2325.89 811.603 2327.5 812.825 2330.04 813.54L2339.18 816.102 2336.71 824.881 2324.38 821.423C2318.95 819.898 2315.44 817.398 2313.86 813.925 2312.28 810.451 2312.4 805.45 2314.24 798.92L2323.69 765.206 2312.1 761.955Z" fill="#FFFFFF" fill-rule="evenodd" fill-opacity="1"/><text fill="#000000" fill-opacity="0" font-family="Arial,Arial_MSFontService,sans-serif" font-size="71.7061" direction="ltr" writing-mode="lr-tb" x="2312.1" y="815.918">l</text><path d="M1842.5 1203.5C1842.5 1003.57 2004.35 841.5 2204 841.5 2403.65 841.5 2565.5 1003.57 2565.5 1203.5 2565.5 1403.43 2403.65 1565.5 2204 1565.5 2004.35 1565.5 1842.5 1403.43 1842.5 1203.5Z" stroke="#FFFFFF" stroke-width="6.875" stroke-linecap="butt" stroke-linejoin="miter" stroke-miterlimit="8" stroke-opacity="0.74902" fill="#0D0D0D" fill-rule="evenodd" fill-opacity="0.25098"/><path d="M1891.48 1131.9 1907.47 1135.94 1908.85 1130.48C1909.65 1127.31 1909.6 1124.88 1908.7 1123.19 1907.81 1121.5 1905.93 1120.29 1903.07 1119.57 1900.22 1118.85 1898 1119.02 1896.43 1120.07 1894.85 1121.12 1893.66 1123.25 1892.86 1126.44ZM1878.81 1141.04 1883.03 1124.3C1884.93 1116.75 1887.64 1111.67 1891.14 1109.06 1894.64 1106.45 1899.41 1105.9 1905.43 1107.42 1909.46 1108.44 1912.43 1110.23 1914.31 1112.8 1916.2 1115.36 1916.92 1118.55 1916.45 1122.37 1916.98 1121.27 1917.78 1120.41 1918.84 1119.77 1919.91 1119.13 1921.83 1118.51 1924.6 1117.9L1948.38 1112.62 1945.17 1125.35 1928.57 1128.68C1928.1 1128.79 1927.45 1128.92 1926.63 1129.07 1921.68 1130.02 1918.85 1131.9 1918.15 1134.71L1917.22 1138.4 1940.4 1144.25 1937.47 1155.84Z" fill="#FFFFFF" fill-rule="evenodd" fill-opacity="1"/><text fill="#000000" fill-opacity="0" font-family="Arial,Arial_MSFontService,sans-serif" font-size="49.2612" direction="ltr" writing-mode="lr-tb" x="1878.81" y="1149.68">R</text><path d="M1939.29 1081.41C1937.49 1085.46 1936.75 1088.51 1937.07 1090.58 1937.39 1092.64 1938.81 1094.24 1941.33 1095.36 1943.2 1096.2 1944.94 1096.31 1946.55 1095.69 1948.15 1095.08 1949.38 1093.82 1950.23 1091.92 1951.5 1089.06 1951.41 1086.35 1949.96 1083.81 1948.5 1081.27 1945.84 1079.14 1941.97 1077.41L1941.22 1077.08ZM1914.89 1074.34C1917.89 1067.61 1921.37 1063.49 1925.33 1061.98 1929.28 1060.47 1934.79 1061.29 1941.84 1064.44L1965.5 1074.99 1960.69 1085.76 1956.07 1083.7C1957.31 1085.82 1957.97 1088.12 1958.04 1090.61 1958.12 1093.1 1957.6 1095.58 1956.5 1098.05 1954.4 1102.76 1951.52 1105.87 1947.86 1107.39 1944.19 1108.91 1940.13 1108.67 1935.66 1106.68 1930.82 1104.52 1927.95 1101.36 1927.04 1097.2 1926.13 1093.04 1927.14 1087.67 1930.06 1081.11L1933.41 1073.6 1931.6 1072.79C1929.85 1072.01 1928.24 1072.05 1926.77 1072.92 1925.3 1073.79 1924.02 1075.46 1922.92 1077.92 1921.77 1080.52 1920.97 1083.17 1920.54 1085.89 1920.11 1088.62 1920.03 1091.62 1920.28 1094.9L1911.03 1090.77C1911.11 1087.94 1911.46 1085.18 1912.09 1082.5 1912.72 1079.83 1913.66 1077.11 1914.89 1074.34Z" fill="#FFFFFF" fill-rule="evenodd" fill-opacity="1"/><text fill="#000000" fill-opacity="0" font-family="Arial,Arial_MSFontService,sans-serif" font-size="47.1248" direction="ltr" writing-mode="lr-tb" x="1911.03" y="1102.48">a</text><path d="M1944.28 1022.28C1946.68 1018.71 1949.67 1016.82 1953.26 1016.6 1956.84 1016.37 1960.98 1017.84 1965.66 1020.99L1990.1 1037.45 1983.52 1047.23 1960.59 1031.79C1957.86 1029.95 1955.64 1029.02 1953.94 1029 1952.25 1028.98 1950.81 1029.85 1949.63 1031.6 1948.44 1033.37 1948.3 1035.3 1949.2 1037.39 1950.1 1039.48 1951.97 1041.48 1954.79 1043.38L1976.34 1057.89 1969.75 1067.67 1932.1 1042.32 1938.69 1032.53 1944.34 1036.34C1942.72 1034.24 1941.91 1031.96 1941.9 1029.51 1941.89 1027.06 1942.68 1024.65 1944.28 1022.28Z" fill="#FFFFFF" fill-rule="evenodd" fill-opacity="1"/><text fill="#000000" fill-opacity="0" font-family="Arial,Arial_MSFontService,sans-serif" font-size="51.0961" direction="ltr" writing-mode="lr-tb" x="1932.1" y="1061.28">n</text><path d="M1981.58 992.313C1979.8 994.166 1979.3 996.479 1980.09 999.252 1980.87 1002.03 1982.84 1004.93 1986 1007.96 1989.16 1010.99 1992.14 1012.84 1994.94 1013.51 1997.75 1014.17 2000.04 1013.58 2001.81 1011.73 2003.59 1009.88 2004.1 1007.55 2003.33 1004.76 2002.57 1001.97 2000.61 999.056 1997.45 996.026 1994.29 992.996 1991.3 991.156 1988.48 990.508 1985.65 989.859 1983.35 990.461 1981.58 992.313ZM1968.23 967.997 1976.42 959.457 2021.93 1003.11 2013.74 1011.65 2008.88 1007C2009.89 1009.73 2010.18 1012.28 2009.74 1014.65 2009.3 1017.01 2008.14 1019.18 2006.25 1021.15 2002.66 1024.9 1998.37 1026.36 1993.39 1025.55 1988.4 1024.73 1983.18 1021.71 1977.72 1016.47 1972.18 1011.16 1968.94 1006.03 1967.99 1001.09 1967.03 996.155 1968.42 991.746 1972.14 987.866 1973.82 986.111 1975.79 984.971 1978.03 984.447 1980.27 983.923 1982.81 984.004 1985.63 984.691Z" fill="#FFFFFF" fill-rule="evenodd" fill-opacity="1"/><text fill="#000000" fill-opacity="0" font-family="Arial,Arial_MSFontService,sans-serif" font-size="66.3078" direction="ltr" writing-mode="lr-tb" x="1967.69" y="1017.48">d</text><path d="M2021.74 956.593C2019.46 958.276 2018.41 960.604 2018.58 963.578 2018.76 966.551 2020.17 969.832 2022.82 973.421 2025.46 977.01 2028.18 979.33 2030.96 980.38 2033.75 981.43 2036.29 981.114 2038.57 979.431 2040.88 977.732 2041.94 975.396 2041.76 972.422 2041.59 969.448 2040.18 966.167 2037.53 962.578 2034.89 958.99 2032.17 956.67 2029.38 955.62 2026.59 954.569 2024.05 954.894 2021.74 956.593ZM2016.02 948.828C2021.2 945.013 2026.58 943.704 2032.18 944.899 2037.78 946.095 2042.75 949.64 2047.09 955.534 2051.43 961.429 2053.35 967.226 2052.83 972.925 2052.32 978.624 2049.47 983.381 2044.29 987.196 2039.14 990.995 2033.76 992.296 2028.17 991.101 2022.57 989.905 2017.6 986.36 2013.26 980.466 2008.91 974.571 2007 968.774 2007.51 963.075 2008.03 957.375 2010.87 952.626 2016.02 948.828Z" fill="#FFFFFF" fill-rule="evenodd" fill-opacity="1"/><text fill="#000000" fill-opacity="0" font-family="Arial,Arial_MSFontService,sans-serif" font-size="47.0586" direction="ltr" writing-mode="lr-tb" x="2007.43" y="985.648">o</text><path d="M2057.97 922.661C2059.61 921.838 2061.35 921.578 2063.19 921.879 2065.04 922.18 2066.45 922.959 2067.45 924.215 2067.38 922.101 2067.76 920.324 2068.59 918.886 2069.41 917.448 2070.71 916.281 2072.5 915.387 2076 913.633 2079.03 913.629 2081.58 915.374 2084.13 917.118 2087.31 921.808 2091.14 929.443L2102.58 952.311 2093.88 956.665 2080.84 930.607C2079.33 927.587 2078.09 925.685 2077.12 924.9 2076.16 924.115 2075.07 924.025 2073.86 924.629 2072.65 925.234 2072.07 926.177 2072.1 927.458 2072.14 928.738 2072.9 930.865 2074.39 933.836L2087.43 959.894 2078.84 964.193 2065.8 938.135C2064.31 935.164 2063.07 933.279 2062.07 932.482 2061.06 931.685 2059.96 931.589 2058.75 932.194 2057.54 932.798 2056.96 933.723 2057.01 934.968 2057.06 936.212 2057.84 938.344 2059.35 941.364L2072.39 967.422 2063.7 971.775 2043.38 931.185 2051.1 927.322 2053.2 931.526C2053.01 929.629 2053.34 927.883 2054.21 926.287 2055.07 924.692 2056.32 923.483 2057.97 922.661Z" fill="#FFFFFF" fill-rule="evenodd" fill-opacity="1"/><text fill="#000000" fill-opacity="0" font-family="Arial,Arial_MSFontService,sans-serif" font-size="57.7071" direction="ltr" writing-mode="lr-tb" x="2043.38" y="964.562">m</text><path d="M2165.37 886.37 2162.72 911.626 2173.95 910.282ZM2156.83 876.372 2171.36 874.633 2194.77 932.769 2182.89 934.191 2177.41 919.785 2161.52 921.688 2159.68 936.971 2147.81 938.392Z" fill="#FFFFFF" fill-rule="evenodd" fill-opacity="1"/><text fill="#000000" fill-opacity="0" font-family="Arial,Arial_MSFontService,sans-serif" font-size="63.7591" direction="ltr" writing-mode="lr-tb" x="2147.81" y="930.422">A</text><path d="M2224.29 887.81C2226.72 887.94 2229.04 888.349 2231.26 889.037 2233.49 889.724 2235.69 890.722 2237.86 892.029L2237.28 902.875C2235.63 901.298 2233.8 900.057 2231.78 899.15 2229.76 898.243 2227.64 897.73 2225.43 897.611 2221.57 897.404 2218.53 898.472 2216.32 900.816 2214.12 903.159 2212.89 906.597 2212.65 911.13 2212.4 915.662 2213.25 919.198 2215.2 921.738 2217.15 924.278 2220.05 925.651 2223.91 925.859 2226.2 925.982 2228.37 925.713 2230.4 925.051 2232.44 924.39 2234.39 923.324 2236.26 921.855L2235.67 932.741C2233.61 933.794 2231.42 934.549 2229.1 935.006 2226.77 935.463 2224.29 935.62 2221.65 935.478 2214.66 935.102 2209.31 932.704 2205.6 928.284 2201.88 923.864 2200.23 917.93 2200.63 910.484 2201.03 903.011 2203.33 897.269 2207.52 893.26 2211.71 889.251 2217.3 887.434 2224.29 887.81Z" fill="#FFFFFF" fill-rule="evenodd" fill-opacity="1"/><text fill="#000000" fill-opacity="0" font-family="Arial,Arial_MSFontService,sans-serif" font-size="47.7668" direction="ltr" writing-mode="lr-tb" x="2200.57" y="929.557">c</text><path d="M2278.04 896.066C2280.41 896.607 2282.63 897.404 2284.71 898.458 2286.78 899.513 2288.78 900.869 2290.7 902.526L2288.29 913.116C2286.93 911.283 2285.34 909.748 2283.5 908.512 2281.66 907.275 2279.66 906.411 2277.5 905.919 2273.73 905.061 2270.56 905.599 2267.99 907.534 2265.41 909.469 2263.62 912.649 2262.61 917.075 2261.61 921.501 2261.85 925.13 2263.33 927.963 2264.82 930.796 2267.45 932.642 2271.22 933.5 2273.46 934.01 2275.64 934.112 2277.76 933.806 2279.88 933.499 2281.98 932.78 2284.07 931.648L2281.65 942.277C2279.44 942.966 2277.15 943.338 2274.78 943.395 2272.41 943.451 2269.94 943.185 2267.36 942.597 2260.53 941.042 2255.67 937.772 2252.76 932.786 2249.85 927.8 2249.22 921.672 2250.88 914.401 2252.54 907.104 2255.78 901.835 2260.59 898.595 2265.4 895.355 2271.22 894.512 2278.04 896.066Z" fill="#FFFFFF" fill-rule="evenodd" fill-opacity="1"/><text fill="#000000" fill-opacity="0" font-family="Arial,Arial_MSFontService,sans-serif" font-size="48.0916" direction="ltr" writing-mode="lr-tb" x="2249.98" y="937.391">c</text><path d="M2322.27 920.351C2319.75 919.299 2317.43 919.227 2315.29 920.135 2313.15 921.043 2311.36 922.848 2309.91 925.55L2327.16 932.717C2328.32 929.805 2328.49 927.307 2327.68 925.225 2326.87 923.143 2325.06 921.518 2322.27 920.351ZM2325.82 911.863C2332.03 914.457 2336.08 918.309 2337.97 923.419 2339.86 928.528 2339.41 934.423 2336.61 941.104L2334.76 945.554 2306.37 933.693C2305.02 936.994 2304.97 939.855 2306.21 942.278 2307.45 944.701 2309.98 946.709 2313.8 948.303 2316.31 949.355 2318.95 950.03 2321.69 950.328 2324.44 950.626 2327.47 950.548 2330.79 950.092L2326.59 960.151C2323.61 960.135 2320.69 959.837 2317.83 959.256 2314.97 958.675 2312.07 957.77 2309.12 956.54 2302.12 953.613 2297.55 949.5 2295.42 944.201 2293.28 938.902 2293.69 932.725 2296.64 925.67 2299.49 918.84 2303.53 914.187 2308.75 911.714 2313.97 909.24 2319.66 909.29 2325.82 911.863Z" fill="#FFFFFF" fill-rule="evenodd" fill-opacity="1"/><text fill="#000000" fill-opacity="0" font-family="Arial,Arial_MSFontService,sans-serif" font-size="50.2557" direction="ltr" writing-mode="lr-tb" x="2294.07" y="953.869">e</text><path d="M2373.63 936.952C2375.79 938.335 2377.83 939.891 2379.76 941.62 2381.68 943.348 2383.43 945.213 2385.01 947.214L2379.42 955.954C2378.33 953.592 2376.98 951.472 2375.38 949.595 2373.77 947.718 2371.97 946.139 2369.97 944.857 2367.74 943.431 2365.84 942.678 2364.29 942.599 2362.74 942.519 2361.55 943.117 2360.74 944.392 2359.57 946.212 2361.06 949.25 2365.21 953.503L2365.52 953.846 2367.95 956.363C2371.04 959.557 2372.81 962.658 2373.28 965.666 2373.74 968.674 2372.93 971.817 2370.83 975.094 2368.31 979.032 2365.13 981.159 2361.29 981.475 2357.45 981.792 2352.93 980.29 2347.74 976.971 2345.44 975.5 2343.21 973.794 2341.06 971.853 2338.9 969.912 2336.83 967.749 2334.86 965.366L2340.45 956.626C2341.86 959.29 2343.5 961.683 2345.36 963.806 2347.23 965.929 2349.23 967.675 2351.37 969.044 2353.71 970.543 2355.71 971.337 2357.35 971.426 2358.99 971.515 2360.23 970.911 2361.06 969.613 2361.87 968.339 2362.07 967.087 2361.66 965.858 2361.24 964.629 2359.67 962.602 2356.96 959.775L2354.59 957.392C2351.32 954.081 2349.4 950.944 2348.82 947.979 2348.25 945.014 2348.95 941.984 2350.93 938.889 2353.29 935.202 2356.46 933.186 2360.43 932.84 2364.4 932.495 2368.8 933.866 2373.63 936.952Z" fill="#FFFFFF" fill-rule="evenodd" fill-opacity="1"/><text fill="#000000" fill-opacity="0" font-family="Arial,Arial_MSFontService,sans-serif" font-size="48.7281" direction="ltr" writing-mode="lr-tb" x="2334.86" y="975.425">s</text><path d="M2416.62 970.021C2418.51 971.754 2420.26 973.637 2421.86 975.67 2423.46 977.703 2424.87 979.841 2426.07 982.082L2419.07 989.734C2418.4 987.22 2417.44 984.901 2416.18 982.777 2414.92 980.652 2413.41 978.787 2411.66 977.182 2409.71 975.393 2407.97 974.327 2406.45 973.983 2404.94 973.639 2403.67 974.025 2402.65 975.141 2401.19 976.735 2402.13 979.982 2405.49 984.883L2405.73 985.274 2407.7 988.17C2410.19 991.847 2411.41 995.207 2411.35 998.25 2411.3 1001.29 2409.95 1004.25 2407.33 1007.12 2404.17 1010.57 2400.67 1012.12 2396.83 1011.77 2392.99 1011.42 2388.8 1009.17 2384.26 1005.01 2382.25 1003.17 2380.34 1001.1 2378.55 998.821 2376.76 996.538 2375.09 994.054 2373.56 991.368L2380.57 983.716C2381.49 986.581 2382.7 989.22 2384.17 991.632 2385.64 994.043 2387.32 996.106 2389.19 997.821 2391.24 999.701 2393.07 1000.82 2394.67 1001.19 2396.28 1001.56 2397.6 1001.18 2398.64 1000.04 2399.66 998.928 2400.07 997.729 2399.87 996.447 2399.67 995.165 2398.48 992.899 2396.29 989.649L2394.36 986.894C2391.7 983.072 2390.35 979.651 2390.29 976.632 2390.24 973.613 2391.45 970.748 2393.93 968.038 2396.89 964.81 2400.35 963.366 2404.32 963.707 2408.3 964.049 2412.4 966.153 2416.62 970.021Z" fill="#FFFFFF" fill-rule="evenodd" fill-opacity="1"/><text fill="#000000" fill-opacity="0" font-family="Arial,Arial_MSFontService,sans-serif" font-size="48.1586" direction="ltr" writing-mode="lr-tb" x="2373.56" y="1005.8">s</text><path d="M651.5 944.771 1619.22 944.771 1619.22 956.229 651.5 956.229ZM1619.22 933.313C1628.71 933.313 1636.4 941.008 1636.4 950.5 1636.4 959.993 1628.71 967.688 1619.22 967.688 1609.72 967.688 1602.03 959.993 1602.03 950.5 1602.03 941.008 1609.72 933.313 1619.22 933.313Z" fill="#FFFFFF" fill-rule="nonzero" fill-opacity="1"/><text fill="#FFFFFF" fill-opacity="1" font-family="EmbedMenlo,EmbedMenlo_MSFontService,sans-serif" font-style="normal" font-variant="normal" font-weight="400" font-stretch="normal" font-size="92" text-anchor="start" direction="ltr" writing-mode="lr-tb" unicode-bidi="normal" text-decoration="none" transform="matrix(1 0 0 1 184.709 981)">istream</text><text fill="#FFFFFF" fill-opacity="1" font-family="Open Sans,Open Sans_MSFontService,sans-serif" font-style="normal" font-variant="normal" font-weight="400" font-stretch="normal" font-size="92" text-anchor="start" direction="ltr" writing-mode="lr-tb" unicode-bidi="normal" text-decoration="none" transform="matrix(1 0 0 1 569.709 981)"> </text><path d="M2.11239e-06-5.72917 978.804-5.72881 978.804 5.72953-2.11239e-06 5.72917ZM978.804-17.1871C988.296-17.1871 995.991-9.49203 995.991 0.00036723 995.991 9.49276 988.296 17.1879 978.804 17.1879 969.311 17.1879 961.616 9.49275 961.616 0.000354555 961.616-9.49204 969.311-17.1871 978.804-17.1871Z" fill="#FFFFFF" fill-rule="nonzero" fill-opacity="1" transform="matrix(-1 0 0 1 3749.3 1753.5)"/><text fill="#FFFFFF" fill-opacity="1" font-family="EmbedMenlo,EmbedMenlo_MSFontService,sans-serif" font-style="normal" font-variant="normal" font-weight="400" font-stretch="normal" font-size="92" text-anchor="start" direction="ltr" writing-mode="lr-tb" unicode-bidi="normal" text-decoration="none" transform="matrix(1 0 0 1 3829.92 1784)">ostream</text><text fill="#FFFFFF" fill-opacity="1" font-family="Open Sans,Open Sans_MSFontService,sans-serif" font-style="normal" font-variant="normal" font-weight="400" font-stretch="normal" font-size="92" text-anchor="start" direction="ltr" writing-mode="lr-tb" unicode-bidi="normal" text-decoration="none" transform="matrix(1 0 0 1 4214.92 1784)"> </text><path d="M975.5 1307.77 1688.75 1307.77 1688.75 1319.23 975.5 1319.23ZM1688.75 1296.31C1698.24 1296.31 1705.94 1304.01 1705.94 1313.5 1705.94 1322.99 1698.24 1330.69 1688.75 1330.69 1679.26 1330.69 1671.56 1322.99 1671.56 1313.5 1671.56 1304.01 1679.26 1296.31 1688.75 1296.31Z" fill="#FFFFFF" fill-rule="nonzero" fill-opacity="1"/><text fill="#FFFFFF" fill-opacity="1" font-family="EmbedMenlo,EmbedMenlo_MSFontService,sans-serif" font-style="normal" font-variant="normal" font-weight="400" font-stretch="normal" font-size="92" text-anchor="start" direction="ltr" writing-mode="lr-tb" unicode-bidi="normal" text-decoration="none" transform="matrix(1 0 0 1 184.709 1290)">unordered_map</text><text fill="#FFFFFF" fill-opacity="1" font-family="EmbedMenlo,EmbedMenlo_MSFontService,sans-serif" font-style="normal" font-variant="normal" font-weight="400" font-stretch="normal" font-size="92" text-anchor="start" direction="ltr" writing-mode="lr-tb" unicode-bidi="normal" text-decoration="none" transform="matrix(1 0 0 1 184.709 1399)">unordered_set</text><text fill="#FFFFFF" fill-opacity="1" font-family="Open Sans,Open Sans_MSFontService,sans-serif" font-style="normal" font-variant="normal" font-weight="400" font-stretch="normal" font-size="92" text-anchor="start" direction="ltr" writing-mode="lr-tb" unicode-bidi="normal" text-decoration="none" transform="matrix(1 0 0 1 899.709 1399)"> </text><path d="M0.0122202-5.72915 1480.99-2.57026 1480.96 8.88805-0.0122202 5.72915ZM1481.01-14.0286C1490.5-14.0083 1498.18-6.29682 1498.16 3.19555 1498.14 12.6879 1490.43 20.3666 1480.94 20.3464 1471.45 20.3261 1463.77 12.6146 1463.79 3.12223 1463.81-6.37014 1471.52-14.0488 1481.01-14.0286Z" fill="#FFFFFF" fill-rule="nonzero" fill-opacity="1" transform="matrix(-1 0 0 1 3912.48 851.5)"/><text fill="#FFFFFF" fill-opacity="1" font-family="EmbedMenlo,EmbedMenlo_MSFontService,sans-serif" font-style="normal" font-variant="normal" font-weight="400" font-stretch="normal" font-size="92" text-anchor="start" direction="ltr" writing-mode="lr-tb" unicode-bidi="normal" text-decoration="none" transform="matrix(1 0 0 1 4050.02 828)">map</text><text fill="#FFFFFF" fill-opacity="1" font-family="EmbedMenlo,EmbedMenlo_MSFontService,sans-serif" font-style="normal" font-variant="normal" font-weight="400" font-stretch="normal" font-size="92" text-anchor="start" direction="ltr" writing-mode="lr-tb" unicode-bidi="normal" text-decoration="none" transform="matrix(1 0 0 1 4050.02 937)">set</text><text fill="#FFFFFF" fill-opacity="1" font-family="Open Sans,Open Sans_MSFontService,sans-serif" font-style="normal" font-variant="normal" font-weight="400" font-stretch="normal" font-size="92" text-anchor="start" direction="ltr" writing-mode="lr-tb" unicode-bidi="normal" text-decoration="none" transform="matrix(1 0 0 1 4215.02 937)"> </text><path d="M3802.4 1230.4 2504.48 1225.23 2504.52 1213.77 3802.45 1218.94ZM2504.43 1236.69C2494.94 1236.65 2487.27 1228.92 2487.31 1219.43 2487.35 1209.94 2495.08 1202.27 2504.57 1202.31 2514.06 1202.35 2521.73 1210.08 2521.69 1219.57 2521.65 1229.06 2513.92 1236.73 2504.43 1236.69Z" fill="#FFFFFF" fill-rule="nonzero" fill-opacity="1"/><text fill="#FFFFFF" fill-opacity="1" font-family="EmbedMenlo,EmbedMenlo_MSFontService,sans-serif" font-style="normal" font-variant="normal" font-weight="400" font-stretch="normal" font-size="92" text-anchor="start" direction="ltr" writing-mode="lr-tb" unicode-bidi="normal" text-decoration="none" transform="matrix(1 0 0 1 3929.84 1245)">deque</text><text fill="#FFFFFF" fill-opacity="1" font-family="Open Sans,Open Sans_MSFontService,sans-serif" font-style="normal" font-variant="normal" font-weight="400" font-stretch="normal" font-size="92" text-anchor="start" direction="ltr" writing-mode="lr-tb" unicode-bidi="normal" text-decoration="none" transform="matrix(1 0 0 1 4204.85 1245)"> </text><path d="M1976.5 1231C1976.5 1100.38 2082.38 994.5 2213 994.5 2343.62 994.5 2449.5 1100.38 2449.5 1231 2449.5 1361.62 2343.62 1467.5 2213 1467.5 2082.38 1467.5 1976.5 1361.62 1976.5 1231Z" stroke="#FFFFFF" stroke-width="6.875" stroke-linecap="butt" stroke-linejoin="miter" stroke-miterlimit="8" stroke-opacity="0.74902" fill="#0D0D0D" fill-rule="evenodd" fill-opacity="0.25098"/><path d="M2021.93 1160.34C2022.66 1158.16 2023.58 1156.15 2024.71 1154.3 2025.84 1152.46 2027.16 1150.82 2028.66 1149.38L2041.27 1153.6C2038.83 1154.94 2036.88 1156.4 2035.44 1157.95 2033.99 1159.5 2032.94 1161.25 2032.29 1163.2 2030.91 1167.35 2031.51 1171.04 2034.09 1174.25 2036.68 1177.46 2041.22 1180.15 2047.7 1182.32 2054.16 1184.48 2059.39 1185.05 2063.39 1184.03 2067.38 1183.02 2070.08 1180.44 2071.46 1176.28 2072.11 1174.34 2072.33 1172.31 2072.11 1170.2 2071.89 1168.09 2071.21 1165.76 2070.06 1163.21L2082.67 1167.42C2082.99 1169.53 2083.06 1171.64 2082.86 1173.77 2082.66 1175.89 2082.2 1178.05 2081.47 1180.23 2078.89 1187.96 2074.36 1193.02 2067.9 1195.39 2061.44 1197.76 2053.39 1197.34 2043.76 1194.12 2034.1 1190.89 2027.4 1186.39 2023.66 1180.61 2019.92 1174.84 2019.34 1168.08 2021.93 1160.34Z" fill="#FFFFFF" fill-rule="evenodd" fill-opacity="1"/><text fill="#000000" fill-opacity="0" font-family="Arial,Arial_MSFontService,sans-serif" font-size="47.516" direction="ltr" writing-mode="lr-tb" x="2020.34" y="1190.96">C</text><path d="M2069.85 1123.95C2068.15 1126.22 2067.8 1128.75 2068.82 1131.55 2069.84 1134.35 2072.13 1137.09 2075.68 1139.78 2079.24 1142.46 2082.51 1143.91 2085.48 1144.12 2088.45 1144.33 2090.79 1143.31 2092.5 1141.04 2094.22 1138.76 2094.58 1136.21 2093.56 1133.41 2092.54 1130.62 2090.25 1127.87 2086.69 1125.19 2083.14 1122.5 2079.87 1121.05 2076.9 1120.84 2073.93 1120.63 2071.58 1121.67 2069.85 1123.95ZM2062.16 1118.14C2066.03 1113.01 2070.82 1110.22 2076.52 1109.77 2082.23 1109.32 2088 1111.3 2093.85 1115.71 2099.69 1120.12 2103.18 1125.13 2104.31 1130.74 2105.44 1136.35 2104.07 1141.72 2100.2 1146.85 2096.34 1151.96 2091.56 1154.75 2085.86 1155.2 2080.15 1155.65 2074.38 1153.67 2068.53 1149.26 2062.69 1144.84 2059.2 1139.83 2058.07 1134.22 2056.94 1128.61 2058.3 1123.25 2062.16 1118.14Z" fill="#FFFFFF" fill-rule="evenodd" fill-opacity="1"/><text fill="#000000" fill-opacity="0" font-family="Arial,Arial_MSFontService,sans-serif" font-size="45.552" direction="ltr" writing-mode="lr-tb" x="2057.68" y="1149.56">o</text><path d="M2109.85 1073.71C2113.39 1071.27 2116.87 1070.61 2120.29 1071.72 2123.71 1072.82 2127.02 1075.7 2130.22 1080.35L2146.93 1104.62 2137.22 1111.31 2121.54 1088.54C2119.67 1085.83 2117.95 1084.15 2116.38 1083.51 2114.81 1082.87 2113.15 1083.15 2111.42 1084.34 2109.66 1085.55 2108.82 1087.3 2108.89 1089.58 2108.97 1091.85 2109.97 1094.39 2111.9 1097.2L2126.64 1118.59 2116.92 1125.28 2091.18 1087.9 2100.9 1081.21 2104.76 1086.82C2104.02 1084.27 2104.1 1081.86 2104.98 1079.57 2105.87 1077.29 2107.5 1075.33 2109.85 1073.71Z" fill="#FFFFFF" fill-rule="evenodd" fill-opacity="1"/><text fill="#000000" fill-opacity="0" font-family="Arial,Arial_MSFontService,sans-serif" font-size="54.0842" direction="ltr" writing-mode="lr-tb" x="2091.18" y="1118.52">n</text><path d="M2147.64 1042.33 2159.05 1039.03 2162.63 1051.41 2177.54 1047.1 2180.07 1055.86 2165.16 1060.17 2171.12 1080.81C2171.69 1082.75 2172.56 1084.01 2173.75 1084.58 2174.95 1085.15 2176.64 1085.12 2178.85 1084.48L2187.61 1081.95 2190.14 1090.71 2180.56 1093.47C2174.02 1095.37 2169.3 1095.6 2166.38 1094.18 2163.47 1092.76 2161.19 1089.22 2159.56 1083.56L2153.75 1063.47 2142.62 1066.68 2140.09 1057.92 2151.22 1054.71Z" fill="#FFFFFF" fill-rule="evenodd" fill-opacity="1"/><text fill="#000000" fill-opacity="0" font-family="Arial,Arial_MSFontService,sans-serif" font-size="56.0643" direction="ltr" writing-mode="lr-tb" x="2140.09" y="1088.08">t</text><path d="M2202.9 1044.49 2226.39 1045.5 2224.83 1081.74 2239.57 1082.37 2239.17 1091.48 2197.79 1089.7 2198.19 1080.59 2212.96 1081.23 2214.13 1054.1 2202.51 1053.6ZM2215.47 1022.92 2227.33 1023.43 2226.74 1037.28 2214.88 1036.77Z" fill="#FFFFFF" fill-rule="evenodd" fill-opacity="1"/><text fill="#000000" fill-opacity="0" font-family="Arial,Arial_MSFontService,sans-serif" font-size="68.5595" direction="ltr" writing-mode="lr-tb" x="2197.79" y="1082.91">i</text><path d="M2273.42 1064.89C2271.1 1064.01 2268.79 1064.43 2266.5 1066.16 2264.21 1067.89 2262.34 1070.66 2260.89 1074.48 2259.43 1078.32 2258.98 1081.64 2259.54 1084.46 2260.1 1087.27 2261.54 1089.12 2263.87 1090.01 2266.21 1090.9 2268.54 1090.48 2270.85 1088.74 2273.16 1087 2275.04 1084.23 2276.49 1080.42 2277.93 1076.63 2278.37 1073.32 2277.8 1070.48 2277.23 1067.65 2275.77 1065.79 2273.42 1064.89ZM2273.78 1054.62C2276.2 1055.54 2278.14 1056.93 2279.6 1058.79 2281.07 1060.65 2281.95 1062.82 2282.24 1065.3L2284.3 1059.89 2295.4 1064.11 2280.47 1103.35C2277.88 1110.14 2274.48 1114.46 2270.27 1116.31 2266.05 1118.16 2260.5 1117.78 2253.6 1115.15 2251.28 1114.27 2249.05 1113.23 2246.9 1112.02 2244.76 1110.81 2242.65 1109.41 2240.57 1107.81L2244.45 1097.62C2246.1 1099.58 2247.91 1101.25 2249.87 1102.63 2251.83 1104.01 2253.96 1105.14 2256.26 1106.02 2259.39 1107.21 2261.98 1107.35 2264.03 1106.44 2266.08 1105.53 2267.7 1103.51 2268.9 1100.38L2270.64 1095.79C2268.79 1097.4 2266.77 1098.36 2264.61 1098.66 2262.44 1098.96 2260.07 1098.62 2257.49 1097.64 2252.64 1095.8 2249.51 1092.44 2248.1 1087.56 2246.69 1082.69 2247.22 1077.01 2249.69 1070.52 2252.24 1063.8 2255.7 1059.02 2260.05 1056.16 2264.4 1053.31 2268.98 1052.8 2273.78 1054.62Z" fill="#FFFFFF" fill-rule="evenodd" fill-opacity="1"/><text fill="#000000" fill-opacity="0" font-family="Arial,Arial_MSFontService,sans-serif" font-size="63.9088" direction="ltr" writing-mode="lr-tb" x="2240.57" y="1109.47">g</text><path d="M2304.1 1106.36 2314.56 1114.95 2305.12 1126.44 2294.66 1117.85Z" fill="#FFFFFF" fill-rule="evenodd" fill-opacity="1"/><text fill="#000000" fill-opacity="0" font-family="Arial,Arial_MSFontService,sans-serif" font-size="20.0852" direction="ltr" writing-mode="lr-tb" x="2294.66" y="1123.93">.</text><path d="M1.37134e-06-5.72917 1507.73-5.72881 1507.73 5.72953-1.37134e-06 5.72917ZM1507.73-17.1871C1517.22-17.1871 1524.92-9.49203 1524.92 0.000365006 1524.92 9.49276 1517.22 17.1879 1507.73 17.1879 1498.24 17.1879 1490.54 9.49275 1490.54 0.000356778 1490.54-9.49204 1498.24-17.1871 1507.73-17.1871Z" fill="#FFFFFF" fill-rule="nonzero" fill-opacity="1" transform="matrix(-1 0 0 1 3802.23 1349.5)"/><text fill="#FFFFFF" fill-opacity="1" font-family="EmbedMenlo,EmbedMenlo_MSFontService,sans-serif" font-style="normal" font-variant="normal" font-weight="400" font-stretch="normal" font-size="92" text-anchor="start" direction="ltr" writing-mode="lr-tb" unicode-bidi="normal" text-decoration="none" transform="matrix(1 0 0 1 3885.02 1380)">vector</text><text fill="#FFFFFF" fill-opacity="1" font-family="Open Sans,Open Sans_MSFontService,sans-serif" font-style="normal" font-variant="normal" font-weight="400" font-stretch="normal" font-size="92" text-anchor="start" direction="ltr" writing-mode="lr-tb" unicode-bidi="normal" text-decoration="none" transform="matrix(1 0 0 1 4215.02 1380)"> </text></g></g></svg>